<svg width="114" height="89" viewBox="0 0 114 89" fill="none" xmlns="http://www.w3.org/2000/svg">
<g id="noto:satellite-antenna" clip-path="url(#clip0_15_63)">
<path id="Vector" d="M17.7502 81.0734C17.7502 76.7903 32.5524 70.7133 50.8191 70.7133C69.0858 70.7133 83.888 76.7903 83.888 81.0734C83.888 81.0734 77.9119 86.2187 50.8191 86.2187C23.7263 86.2187 17.7502 81.0734 17.7502 81.0734Z" fill="#94D1E0"/>
<path id="Vector_2" d="M77.5557 75.5457C75.0886 74.5792 72.5503 73.7309 69.9408 73.0425L67.9102 61.9801H54.4172L53.491 71.3251C49.8394 72.6045 45.6446 76.3522 46.1611 79.0292C46.9092 82.9229 55.4949 83.6182 69.0769 82.4779C72.5147 82.1859 79.8891 80.4963 82.748 78.8623C82.748 78.8692 80.5482 76.7138 77.5557 75.5457Z" fill="#82AEC0"/>
<path id="Vector_3" d="M65.2116 64.9005L56.7328 63.343L56.0292 69.1767L45.1013 69.9485L46.1611 79.0293L66.7791 75.2468L65.2116 64.9005Z" fill="#2F7889"/>
<path id="Vector_4" d="M104.408 63.5099C98.6011 69.0237 55.771 67.7096 35.7853 56.0283C15.7997 44.3471 3.21518 12.919 9.53862 6.32739L104.408 63.5099Z" fill="#82AEC0"/>
<path id="Vector_5" d="M104.586 63.3986C105.316 62.6338 105.53 61.9941 105.307 61.0693L82.7568 58.9834C82.7568 58.9834 66.209 62.314 43.5961 56.9044L43.9612 59.8804C65.55 68.1754 99.0286 69.1975 104.586 63.3986Z" fill="#2F7889"/>
<path id="Vector_6" d="M106.158 62.1576C113.321 54.6873 97.5642 36.0299 70.9647 20.4851C44.3652 4.94031 16.9954 -1.60532 9.83267 5.865C2.66991 13.3353 18.4265 31.9928 45.026 47.5375C71.6255 63.0823 98.9953 69.628 106.158 62.1576Z" fill="#FAFAFA"/>
<path id="Vector_7" d="M82.748 57.69C90.9952 51.2514 76.9857 30.9553 52.8675 11.3057C32.9175 2.69082 15.3544 0.104255 9.83253 5.8684C2.6719 13.343 18.4271 31.9982 45.0211 47.5454C53.5177 52.51 63.3324 57.0156 71.3035 59.9776C76.3444 60.7216 80.3255 59.5813 82.748 57.69Z" fill="#E0E0E0"/>
<path id="Vector_8" d="M50.8191 75.3371L36.3375 75.7196V49.8957C40.1939 48.6441 45.1013 49.6384 46.1611 55.1453C46.74 58.149 50.8191 75.3371 50.8191 75.3371Z" fill="#2F7889"/>
<path id="Vector_9" d="M70.965 20.4909C44.362 4.9437 16.9931 -1.59919 9.83249 5.86847C2.67186 13.3361 18.427 31.9983 45.03 47.5385C71.633 63.0857 99.0019 69.6286 106.162 62.161C113.323 54.6933 97.568 36.0381 70.965 20.4909ZM104.203 60.3045C98.04 66.7361 72.5503 59.9707 47.2744 45.1953C21.9984 30.42 6.50155 13.2388 12.6647 6.80714C18.8278 0.375497 44.3175 7.14089 69.5934 21.9163C94.8694 36.6917 110.366 53.8728 104.203 60.3045Z" fill="#82AEC0"/>
<path id="Vector_10" d="M46.1611 79.0292L31.0828 75.8447L33.5142 54.0884C33.7903 51.1681 35.3667 49.7705 37.5309 49.7566C40.2295 49.7427 42.8213 50.9942 43.2488 54.3665C43.6317 57.3911 46.1611 79.0292 46.1611 79.0292Z" fill="#94D1E0"/>
<path id="Vector_11" opacity="0.7" d="M37.5309 56.6749C38.736 56.6749 39.7129 55.6569 39.7129 54.4012C39.7129 53.1455 38.736 52.1276 37.5309 52.1276C36.3258 52.1276 35.3489 53.1455 35.3489 54.4012C35.3489 55.6569 36.3258 56.6749 37.5309 56.6749Z" fill="#2F7889"/>
<path id="Vector_12" d="M81.4388 13.8506L64.2764 31.8731" stroke="#2F7889" stroke-width="3" stroke-miterlimit="10" stroke-linecap="round"/>
<path id="Vector_13" d="M27.0572 30.8649L80.4323 13.204M83.0597 14.5181L77.422 59.2545" stroke="#82AEC0" stroke-width="3" stroke-miterlimit="10" stroke-linecap="round"/>
<path id="Vector_14" d="M81.5545 13.941C78.9539 12.5226 79.3102 11.3475 79.8802 10.7773L85.0903 5.5903C85.6603 5.02014 87.1031 4.58905 89.3119 5.99358C91.1555 7.1617 91.2089 8.42022 90.6389 8.99037L85.4287 14.1774C84.8587 14.7476 83.3091 14.9005 81.5545 13.941Z" fill="#82AEC0"/>
<path id="Vector_15" d="M81.6169 12.0567C80.9044 11.6395 81.8039 9.91515 83.4872 8.37851C85.1705 6.84187 86.4619 5.89624 87.1655 6.30648C87.878 6.72367 87.2724 8.14906 85.4555 9.88038C83.6475 11.6187 81.9108 12.2305 81.6169 12.0567ZM12.6647 6.8071C12.8695 6.59851 14.6241 5.17312 13.5553 4.57515C12.3975 3.93546 10.732 4.69335 9.28033 6.52898C6.35018 10.2141 9.60986 16.0965 10.3045 17.348C15.1763 26.1368 27.841 37.4843 45.0389 47.5385C52.253 51.7521 59.5116 55.2982 66.4228 58.0934C69.4688 59.3241 71.9002 60.5339 75.1064 60.2558C76.9589 60.0959 77.4042 59.1433 75.8367 58.5314C67.4292 55.2356 56.4835 50.577 47.2744 45.1953C21.9985 30.4269 6.50158 13.2387 12.6647 6.8071Z" fill="#94D1E0"/>
</g>
<defs>
<clipPath id="clip0_15_63">
<rect width="114" height="89" fill="white"/>
</clipPath>
</defs>
</svg>
