<svg width="69" height="65" viewBox="0 0 69 65" fill="none" xmlns="http://www.w3.org/2000/svg">
<g id="clarity:settings-solid" clip-path="url(#clip0_16_112)">
<path id="Vector" d="M62.4258 28.3833L56.005 26.5778C55.5611 25.1176 54.9506 23.7071 54.1842 22.3708L57.3275 16.8278C57.4454 16.6185 57.4886 16.3791 57.4507 16.1449C57.4127 15.9107 57.2956 15.6943 57.1167 15.5278L52.5358 11.1944C52.3591 11.0259 52.1294 10.9156 51.8808 10.8798C51.6322 10.844 51.3779 10.8847 51.1558 10.9958L45.31 13.9389C43.8775 13.1817 42.3605 12.5762 40.7867 12.1333L38.87 6.15694C38.7889 5.93669 38.6358 5.74635 38.4326 5.61332C38.2293 5.48029 37.9866 5.41144 37.7392 5.41666H31.2608C31.0119 5.41775 30.7699 5.49364 30.57 5.63328C30.37 5.77292 30.2226 5.96902 30.1492 6.19305L28.2325 12.1514C26.6455 12.5919 25.1156 13.1975 23.6708 13.9569L17.9208 11.0319C17.6987 10.9208 17.4445 10.8801 17.1959 10.9159C16.9473 10.9517 16.7176 11.062 16.5408 11.2305L11.8833 15.5097C11.7045 15.6762 11.5873 15.8926 11.5494 16.1268C11.5114 16.361 11.5546 16.6005 11.6725 16.8097L14.7775 22.2264C13.9726 23.5816 13.3298 25.0168 12.8608 26.5055L6.51667 28.3111C6.27886 28.3803 6.07069 28.5192 5.92245 28.7075C5.77422 28.8959 5.69366 29.1239 5.6925 29.3583V35.4611C5.69366 35.6956 5.77422 35.9236 5.92245 36.1119C6.07069 36.3003 6.27886 36.4391 6.51667 36.5083L12.8992 38.3139C13.3733 39.7779 14.016 41.1886 14.8158 42.5208L11.6725 48.1903C11.5546 48.3995 11.5114 48.639 11.5494 48.8732C11.5873 49.1074 11.7045 49.3238 11.8833 49.4903L16.4642 53.8055C16.6409 53.9741 16.8707 54.0844 17.1193 54.1202C17.3678 54.156 17.6221 54.1153 17.8442 54.0042L23.7667 51.025C25.1677 51.7372 26.6455 52.3061 28.175 52.7222L30.0917 58.8069C30.1651 59.031 30.3125 59.2271 30.5125 59.3667C30.7124 59.5063 30.9544 59.5822 31.2033 59.5833H37.6817C37.9306 59.5822 38.1726 59.5063 38.3725 59.3667C38.5725 59.2271 38.7199 59.031 38.7933 58.8069L40.71 52.7042C42.2264 52.2859 43.6913 51.717 45.08 51.0069L51.0408 54.0042C51.2629 54.1153 51.5172 54.156 51.7658 54.1202C52.0144 54.0844 52.2441 53.9741 52.4208 53.8055L57.0017 49.4903C57.1806 49.3238 57.2977 49.1074 57.3357 48.8732C57.3736 48.639 57.3305 48.3995 57.2125 48.1903L54.0308 42.593C54.7924 41.2799 55.4029 39.8937 55.8517 38.4583L62.3108 36.6528C62.5486 36.5836 62.7568 36.4447 62.9051 36.2564C63.0533 36.068 63.1338 35.84 63.135 35.6055V29.4486C63.1463 29.2241 63.0844 29.0017 62.9577 28.8113C62.8309 28.6208 62.6453 28.4715 62.4258 28.3833ZM34.5 42.4305C32.4151 42.4305 30.3769 41.8481 28.6434 40.7569C26.9098 39.6658 25.5586 38.1148 24.7608 36.3003C23.9629 34.4857 23.7541 32.489 24.1609 30.5626C24.5676 28.6363 25.5716 26.8668 27.0459 25.478C28.5202 24.0892 30.3985 23.1434 32.4434 22.7603C34.4883 22.3771 36.6079 22.5737 38.5341 23.3254C40.4604 24.077 42.1067 25.3498 43.2651 26.9829C44.4234 28.6159 45.0417 30.5359 45.0417 32.5C45.0417 35.1337 43.931 37.6596 41.9541 39.522C39.9771 41.3843 37.2958 42.4305 34.5 42.4305Z" fill="black" fill-opacity="0.71"/>
</g>
<defs>
<clipPath id="clip0_16_112">
<rect width="69" height="65" fill="white"/>
</clipPath>
</defs>
</svg>
