<svg width="126" height="80" viewBox="0 0 126 80" fill="none" xmlns="http://www.w3.org/2000/svg">
<g id="emojione:airplane-departure" clip-path="url(#clip0_16_79)">
<path id="Vector" d="M64.7719 13.75C64.7719 13.75 59.85 12.25 55.7156 11.125C51.7781 10 50.5969 8.5 53.55 7.875C56.3062 7.25 62.8031 7 67.9219 7.125C70.0875 7.25 76.9781 7.5 76.9781 7.5C82.0969 7.625 82.4906 8.75 77.7656 9.75L64.7719 13.75Z" fill="#42ADE2"/>
<path id="Vector_2" d="M16.3406 25.5001C16.3406 25.5001 11.2219 26.7501 10.8281 28.2501C10.2375 29.5001 8.46563 46.6251 122.456 6.25006C129.15 3.87506 125.803 1.25006 116.55 0.625064C88.5938 -1.37494 95.4844 6.24657e-05 16.3406 25.5001Z" fill="#DAE3EA"/>
<path id="Vector_3" d="M41.5406 17.25C41.5406 17.25 16.3406 12.5 8.07187 10.75C2.75624 9.62497 0.196869 13.375 0.196869 13.375C0.196869 13.375 10.0406 28.625 11.025 28.25L41.3437 18.375C42.3281 18 42.3281 17.5 41.5406 17.25Z" fill="#42ADE2"/>
<path id="Vector_4" d="M68.5125 31.875C68.5125 31.875 48.0375 33 34.0594 42C33.2719 42.5 31.6969 43.875 34.2562 44.625C39.1781 45.5 50.7937 46.25 70.4812 40.25L68.5125 31.875Z" fill="#C5D0D8"/>
<path id="Vector_5" d="M70.6781 40.1251C68.9063 40.5001 66.9375 39.0001 65.9531 36.7501C65.1656 34.5001 65.7563 32.3751 67.5281 32.0001C69.3 31.6251 71.2688 33.1251 72.2531 35.3751C73.0406 37.6251 72.45 39.7501 70.6781 40.1251Z" fill="#94989B"/>
<path id="Vector_6" d="M65.5594 19C60.6375 20.375 58.275 21.125 55.5188 24L35.0438 43.5C32.2875 46.375 34.2563 47.75 39.375 46.75C44.4938 45.625 51.5813 42.75 54.9281 40.125L87.4125 15.625C90.7594 13 89.5781 12.125 84.6563 13.5L65.5594 19Z" fill="#42ADE2"/>
<g id="Group">
<path id="Vector_7" d="M69.1031 37C68.5125 35.375 67.3313 34.125 65.9531 33.75C65.7563 34.625 65.7563 35.625 66.15 36.75C66.7406 38.375 67.9219 39.625 69.3 40C69.4969 39.125 69.4969 38.125 69.1031 37ZM107.1 0.875C106.116 1.875 100.8 4.75 100.8 4.75C100.8 4.75 101.784 5.875 104.934 5.25C107.494 4.75 110.053 3.25 111.431 1.5L107.1 0.875Z" fill="#3E4347"/>
<path id="Vector_8" d="M41.9344 23C43.0217 23 43.9031 22.4404 43.9031 21.75C43.9031 21.0596 43.0217 20.5 41.9344 20.5C40.8471 20.5 39.9656 21.0596 39.9656 21.75C39.9656 22.4404 40.8471 23 41.9344 23Z" fill="#3E4347"/>
<path id="Vector_9" d="M49.0219 20.75C50.1092 20.75 50.9906 20.1904 50.9906 19.5C50.9906 18.8096 50.1092 18.25 49.0219 18.25C47.9346 18.25 47.0531 18.8096 47.0531 19.5C47.0531 20.1904 47.9346 20.75 49.0219 20.75Z" fill="#3E4347"/>
<path id="Vector_10" d="M56.1094 18.375C57.1967 18.375 58.0781 17.8154 58.0781 17.125C58.0781 16.4346 57.1967 15.875 56.1094 15.875C55.0221 15.875 54.1406 16.4346 54.1406 17.125C54.1406 17.8154 55.0221 18.375 56.1094 18.375Z" fill="#3E4347"/>
<path id="Vector_11" d="M63.3938 16C64.4811 16 65.3625 15.4404 65.3625 14.75C65.3625 14.0596 64.4811 13.5 63.3938 13.5C62.3065 13.5 61.425 14.0596 61.425 14.75C61.425 15.4404 62.3065 16 63.3938 16Z" fill="#3E4347"/>
<path id="Vector_12" d="M70.4813 13.625C71.5686 13.625 72.45 13.0654 72.45 12.375C72.45 11.6846 71.5686 11.125 70.4813 11.125C69.394 11.125 68.5125 11.6846 68.5125 12.375C68.5125 13.0654 69.394 13.625 70.4813 13.625Z" fill="#3E4347"/>
<path id="Vector_13" d="M77.5688 11.375C78.6561 11.375 79.5375 10.8154 79.5375 10.125C79.5375 9.43464 78.6561 8.875 77.5688 8.875C76.4814 8.875 75.6 9.43464 75.6 10.125C75.6 10.8154 76.4814 11.375 77.5688 11.375Z" fill="#3E4347"/>
<path id="Vector_14" d="M84.6562 9C85.7436 9 86.625 8.44036 86.625 7.75C86.625 7.05964 85.7436 6.5 84.6562 6.5C83.5689 6.5 82.6875 7.05964 82.6875 7.75C82.6875 8.44036 83.5689 9 84.6562 9Z" fill="#3E4347"/>
</g>
<path id="Vector_15" d="M63 80C89.7478 80 111.431 78.6009 111.431 76.875C111.431 75.1491 89.7478 73.75 63 73.75C36.2522 73.75 14.5688 75.1491 14.5688 76.875C14.5688 78.6009 36.2522 80 63 80Z" fill="#94989B"/>
</g>
<defs>
<clipPath id="clip0_16_79">
<rect width="126" height="80" fill="white"/>
</clipPath>
</defs>
</svg>
